<svg width="47" height="46" viewBox="0 0 47 46" fill="none" xmlns="http://www.w3.org/2000/svg">
<path d="M13.2093 7.65386C13.5823 7.41583 13.6835 6.93247 13.4357 6.57454C13.1879 6.21628 12.6847 6.11897 12.3117 6.35701C8.36169 8.87807 5.45204 12.6455 4.08566 17.0079C4.02416 17.206 4.04695 17.419 4.14897 17.6007C4.25099 17.7825 4.42427 17.9177 4.63011 17.9767C4.70536 17.9986 4.78349 18.0097 4.862 18.0097C5.22014 18.0097 5.53559 17.7839 5.63833 17.4541C6.8958 13.4399 9.57355 9.97329 13.2093 7.65363L13.2093 7.65386Z" fill="white"/>
<path d="M16.2066 5.44899C16.2066 5.87906 15.8438 6.22778 15.3963 6.22778C14.9488 6.22778 14.5859 5.87906 14.5859 5.44899C14.5859 5.01892 14.9488 4.6702 15.3963 4.6702C15.8438 4.6702 16.2066 5.01892 16.2066 5.44899Z" fill="white"/>
<path d="M46.5156 19.933C46.2985 19.8059 46.0323 19.7836 45.7957 19.8722C45.1467 20.1162 44.4557 20.2406 43.7586 20.2385C42.2548 20.2368 40.8128 19.6623 39.7496 18.6407C38.6861 17.6195 38.0881 16.2343 38.0862 14.7898C38.0851 14.5567 38.1014 14.3238 38.1347 14.0931C38.1673 13.8818 38.1079 13.6667 37.9701 13.4989C37.8326 13.3307 37.6293 13.2247 37.4076 13.2053C35.1946 13.0082 33.1963 11.8518 31.9804 10.065C30.7645 8.27781 30.4639 6.05565 31.1643 4.02972C31.2554 3.76841 31.1957 3.48034 31.0076 3.27219C30.8191 3.0644 30.5305 2.96744 30.2486 3.01783C29.0914 3.2291 27.8939 3.08976 26.8228 2.61925C25.7513 2.14909 24.8584 1.37037 24.2677 0.391484C24.0958 0.146156 23.8079 -0.000837456 23.5 0.00055918C17.2676 0.00055918 11.2902 2.37876 6.88284 6.6119C2.47586 10.8454 0 16.5867 0 22.5736C0 28.5604 2.47586 34.3018 6.88284 38.5353C11.2902 42.7684 17.2673 45.1466 23.5 45.1466C29.7327 45.1466 35.7098 42.7684 40.1171 38.5353C44.5241 34.3018 47 28.5604 47 22.5736C47 21.88 46.966 21.1895 46.8987 20.5217C46.8741 20.2784 46.7323 20.0606 46.5156 19.933ZM23.5 43.5896C17.7285 43.5927 12.1894 41.4049 8.08953 37.5033C3.98937 33.6013 1.6603 28.3015 1.60965 22.7576C1.559 17.2141 3.79072 11.8754 7.81892 7.90525C11.8475 3.93479 17.3458 1.65418 23.1164 1.56007C24.4961 3.54667 26.8364 4.71914 29.3224 4.66905C28.8908 6.90269 29.4013 9.21008 30.7412 11.0824C32.0816 12.9543 34.1414 14.2383 36.4671 14.6511C36.4664 14.697 36.4657 14.7428 36.4657 14.7894C36.4671 16.9167 37.474 18.928 39.2028 20.2575C40.9317 21.5867 43.1955 22.0902 45.3567 21.6256C45.3715 21.9391 45.3795 22.256 45.3795 22.5732C45.373 28.1452 43.0657 33.4865 38.9641 37.4274C34.8621 41.3672 29.3011 43.5835 23.4999 43.5897L23.5 43.5896Z" fill="white"/>
<path d="M20.259 32.6919C19.3994 32.6919 18.5749 33.0199 17.9668 33.6037C17.3591 34.1878 17.0176 34.9798 17.0176 35.8054C17.0176 36.631 17.3591 37.423 17.9668 38.0071C18.575 38.5909 19.3994 38.9189 20.259 38.9189C21.1185 38.9189 21.943 38.5909 22.5511 38.0071C23.1588 37.423 23.5003 36.631 23.5003 35.8054C23.4996 34.9798 23.1577 34.1885 22.55 33.6048C21.9422 33.021 21.1185 32.6926 20.259 32.6919ZM20.259 37.3622C19.8292 37.3622 19.4168 37.1982 19.1129 36.9063C18.809 36.6144 18.6383 36.2182 18.6383 35.8054C18.6383 35.3926 18.809 34.9965 19.1129 34.7046C19.4168 34.4127 19.8292 34.2487 20.259 34.2487C20.6887 34.2487 21.1011 34.4127 21.405 34.7046C21.7089 34.9965 21.8796 35.3926 21.8796 35.8054C21.8793 36.2182 21.7082 36.6137 21.4043 36.9056C21.1004 37.1974 20.6887 37.3618 20.259 37.3622Z" fill="white"/>
<path d="M32.4133 24.1296C30.3834 24.1296 29.1719 25.5845 29.1719 28.0215C29.1719 30.3459 30.1747 32.6918 32.4133 32.6918C34.6945 32.6918 36.465 30.1812 36.465 28.0215C36.4639 26.9898 36.0363 26.0005 35.277 25.2708C34.5173 24.5414 33.4874 24.1307 32.4133 24.1296ZM32.4133 31.135C31.2238 31.135 30.7926 29.2732 30.7926 28.0215C30.7926 25.6864 32.0121 25.6864 32.4133 25.6864C33.0579 25.6871 33.6758 25.9334 34.1316 26.3709C34.5871 26.8088 34.8436 27.4023 34.8443 28.0216C34.8443 29.3809 33.6654 31.135 32.4133 31.135Z" fill="white"/>
<path d="M20.3367 16.1164C20.5426 16.1161 20.7473 16.0952 20.9485 16.0542C21.8771 15.8224 22.7153 15.3363 23.3614 14.6552C24.1562 13.8973 24.7962 13.0032 25.2487 12.0191C26.0099 10.2448 25.3468 9.23426 24.8841 8.79018V8.78983C23.9102 8.00033 22.5811 7.74876 21.3681 8.12438C20.1862 8.36936 19.0941 8.91423 18.2053 9.7016C17.4467 10.4324 17.0205 11.422 17.0205 12.4538C17.0205 13.4855 17.4467 14.4755 18.2053 15.206C18.757 15.7755 19.5268 16.1042 20.3368 16.1163L20.3367 16.1164ZM19.3506 10.8026L19.351 10.8029C20.0213 10.224 20.8385 9.82441 21.7201 9.64445C22.0056 9.58121 22.2971 9.5482 22.5898 9.54541C23.0047 9.51414 23.4161 9.63785 23.738 9.89082C24.0527 10.1938 24.0567 10.7102 23.7499 11.4264C23.3773 12.2197 22.8575 12.9407 22.2157 13.5548C21.7881 14.0166 21.2346 14.3547 20.6178 14.5306C20.1465 14.6234 19.6595 14.4604 19.3509 14.1056C18.8954 13.6674 18.6397 13.0735 18.6397 12.4544C18.6397 11.8352 18.8954 11.2413 19.3509 10.8031L19.3506 10.8026Z" fill="white"/>
<path d="M10.5341 19.4595C9.45967 19.4595 8.4291 19.8695 7.66895 20.5992C6.90926 21.3293 6.48242 22.3193 6.48242 23.3514C6.48242 24.3835 6.9093 25.3734 7.66895 26.1035C8.42901 26.8333 9.45967 27.2433 10.5341 27.2433C11.6086 27.2433 12.6392 26.8332 13.3993 26.1035C14.159 25.3735 14.5859 24.3835 14.5859 23.3514C14.5848 22.3196 14.1572 21.3303 13.3979 20.6006C12.6382 19.8712 11.6082 19.4605 10.5341 19.4595ZM10.5341 25.6865C9.88949 25.6865 9.27084 25.4405 8.8151 25.0027C8.35937 24.5648 8.10316 23.9706 8.10316 23.3514C8.10316 22.7323 8.35928 22.1379 8.8151 21.7002C9.27092 21.2624 9.88957 21.0163 10.5341 21.0163C11.1787 21.0163 11.7974 21.2623 12.2532 21.7002C12.7089 22.138 12.9651 22.7323 12.9651 23.3514C12.9644 23.9706 12.7079 24.5642 12.2525 25.002C11.7966 25.4395 11.1787 25.6859 10.5341 25.6866L10.5341 25.6865Z" fill="white"/>
<path d="M46.4461 9.38046L44.0151 8.60208C43.7239 8.50895 43.4026 8.58158 43.1856 8.79008L39.9442 11.9036C39.7659 12.0753 39.6808 12.3168 39.7141 12.5572C39.7478 12.7977 39.8961 13.0093 40.1153 13.1299L45.7877 16.2434C46.0384 16.381 46.3467 16.38 46.5963 16.2406C46.8462 16.1016 47 15.8448 47 15.5675V10.1189C47 9.78391 46.7768 9.48645 46.4461 9.38046ZM45.3793 14.2263L41.8401 12.2838L43.9774 10.2308L45.3793 10.6798V14.2263Z" fill="white"/>
<path d="M41.3275 4.67023V0.778326C41.3275 0.549678 41.2229 0.33215 41.041 0.184462C40.8594 0.0364275 40.6192 -0.0271596 40.384 0.0107186L35.5219 0.789099C35.1312 0.8513 34.8447 1.17621 34.8447 1.55671V6.22699C34.8447 6.47718 34.9699 6.71208 35.1812 6.85838C35.3928 7.00467 35.6645 7.04464 35.9116 6.96541L40.7736 5.40865C41.1043 5.30266 41.3275 5.00521 41.3275 4.67023ZM39.7068 4.10938L36.4654 5.14733V2.21627L39.7068 1.69746V4.10938Z" fill="white"/>
<path d="M37.276 9.34094C37.276 9.77102 36.9131 10.1197 36.4656 10.1197C36.0181 10.1197 35.6553 9.77102 35.6553 9.34094C35.6553 8.91087 36.0181 8.56215 36.4656 8.56215C36.9131 8.56215 37.276 8.91087 37.276 9.34094Z" fill="white"/>
<path d="M34.8443 20.2383C34.8443 20.6683 34.4815 21.0171 34.034 21.0171C33.5865 21.0171 33.2236 20.6683 33.2236 20.2383C33.2236 19.8082 33.5865 19.4595 34.034 19.4595C34.4815 19.4595 34.8443 19.8082 34.8443 20.2383Z" fill="white"/>
<path d="M26.7418 20.2383C26.7418 20.6683 26.3789 21.0171 25.9314 21.0171C25.4839 21.0171 25.1211 20.6683 25.1211 20.2383C25.1211 19.8082 25.4839 19.4595 25.9314 19.4595C26.3789 19.4595 26.7418 19.8082 26.7418 20.2383Z" fill="white"/>
<path d="M11.3443 14.7896C11.3443 15.2197 10.9815 15.5684 10.534 15.5684C10.0865 15.5684 9.72363 15.2197 9.72363 14.7896C9.72363 14.3595 10.0865 14.0108 10.534 14.0108C10.9815 14.0108 11.3443 14.3595 11.3443 14.7896Z" fill="white"/>
<path d="M21.8795 26.4653C21.8795 26.8954 21.5166 27.2441 21.0691 27.2441C20.6216 27.2441 20.2588 26.8954 20.2588 26.4653C20.2588 26.0352 20.6216 25.6865 21.0691 25.6865C21.5166 25.6865 21.8795 26.0352 21.8795 26.4653Z" fill="white"/>
<path d="M12.9654 34.249C12.9654 34.6791 12.6026 35.0278 12.1551 35.0278C11.7076 35.0278 11.3447 34.6791 11.3447 34.249C11.3447 33.819 11.7076 33.4702 12.1551 33.4702C12.6026 33.4702 12.9654 33.819 12.9654 34.249Z" fill="white"/>
<path d="M32.4137 36.5842C32.4137 37.0142 32.0508 37.3629 31.6033 37.3629C31.1558 37.3629 30.793 37.0142 30.793 36.5842C30.793 36.1541 31.1558 35.8054 31.6033 35.8054C32.0508 35.8054 32.4137 36.1541 32.4137 36.5842Z" fill="white"/>
</svg>
