<svg width="108" height="33" viewBox="0 0 108 33" fill="none" xmlns="http://www.w3.org/2000/svg">
<path d="M2.14184 22.56C2.88184 22.84 3.58184 23.05 4.24184 23.19C4.90184 23.31 5.67184 23.37 6.55184 23.37C8.05184 23.37 9.21184 23.11 10.0318 22.59C10.8518 22.07 11.2618 21.24 11.2618 20.1C11.2618 18 9.83184 16.95 6.97184 16.95C6.17184 16.95 5.36184 17.02 4.54184 17.16C3.74184 17.28 3.02184 17.44 2.38184 17.64L2.98184 6H15.2218V9.87H6.52184L6.28184 13.8C6.78184 13.7 7.22184 13.63 7.60184 13.59C7.98184 13.55 8.42184 13.53 8.92184 13.53C10.1418 13.53 11.1918 13.71 12.0718 14.07C12.9718 14.41 13.7118 14.88 14.2918 15.48C14.8918 16.06 15.3318 16.75 15.6118 17.55C15.8918 18.33 16.0318 19.16 16.0318 20.04C16.0318 21.06 15.8718 22.02 15.5518 22.92C15.2318 23.8 14.7218 24.57 14.0218 25.23C13.3218 25.89 12.4118 26.41 11.2918 26.79C10.1718 27.17 8.82184 27.36 7.24184 27.36C6.48184 27.36 5.66184 27.29 4.78184 27.15C3.92184 27.03 3.04184 26.82 2.14184 26.52V22.56ZM18.9643 30.45C19.9643 30.13 20.7243 29.72 21.2443 29.22C21.7843 28.74 22.1443 28.12 22.3243 27.36C21.2843 27.36 20.5543 27.1 20.1343 26.58C19.7143 26.06 19.5043 25.45 19.5043 24.75C19.5043 24.05 19.7443 23.46 20.2243 22.98C20.7243 22.48 21.4543 22.23 22.4143 22.23C23.2943 22.23 24.0343 22.53 24.6343 23.13C25.2343 23.71 25.5343 24.63 25.5343 25.89C25.5343 26.69 25.4143 27.46 25.1743 28.2C24.9543 28.94 24.6043 29.62 24.1243 30.24C23.6643 30.86 23.0843 31.39 22.3843 31.83C21.7043 32.29 20.9043 32.63 19.9843 32.85L18.9643 30.45ZM28.5592 22.32C29.5392 22.72 30.4492 22.99 31.2892 23.13C32.1492 23.27 32.9892 23.34 33.8092 23.34C35.2692 23.34 36.3492 23.11 37.0492 22.65C37.7492 22.17 38.0992 21.52 38.0992 20.7C38.0992 19.72 37.7292 19.04 36.9892 18.66C36.2692 18.26 35.2692 18.06 33.9892 18.06H30.9892V14.43H33.5992C34.9192 14.43 35.9092 14.24 36.5692 13.86C37.2492 13.48 37.5892 12.84 37.5892 11.94C37.5892 11.22 37.2892 10.66 36.6892 10.26C36.0892 9.84 35.1492 9.63 33.8692 9.63C32.9092 9.63 31.9992 9.72 31.1392 9.9C30.2992 10.06 29.5592 10.28 28.9192 10.56V6.57C29.8792 6.23 30.8492 5.99 31.8292 5.85C32.8092 5.71 33.8392 5.64 34.9192 5.64C36.3192 5.64 37.4992 5.79 38.4592 6.09C39.4192 6.39 40.1892 6.8 40.7692 7.32C41.3492 7.82 41.7692 8.41 42.0292 9.09C42.2892 9.75 42.4192 10.46 42.4192 11.22C42.4192 12.54 42.0492 13.6 41.3092 14.4C40.5692 15.2 39.5292 15.76 38.1892 16.08V16.14C39.8892 16.42 41.0992 16.99 41.8192 17.85C42.5392 18.71 42.8992 19.74 42.8992 20.94C42.8992 22.94 42.1792 24.51 40.7392 25.65C39.3192 26.79 37.2292 27.36 34.4692 27.36C33.6692 27.36 32.7492 27.29 31.7092 27.15C30.6892 27.01 29.6392 26.76 28.5592 26.4V22.32ZM54.5617 17.91L52.5217 14.43H52.0717L50.0317 17.91L47.3017 16.08L50.1817 13.02L50.0617 12.63L46.0417 11.85L47.0317 8.64L50.8417 10.32L51.2017 10.08L50.6917 6H53.9917L53.5117 10.11L53.8417 10.32L57.5917 8.64L58.5517 11.85L54.5617 12.63L54.4417 13.05L57.2917 16.08L54.5617 17.91Z" fill="#6CACE4"/>
<path d="M73.7575 27H69.2575V10.92L65.7175 13.23L63.8275 10.02L70.0375 6H73.7575V27ZM88.09 23.52C89.31 23.52 90.19 22.99 90.73 21.93C91.29 20.85 91.57 19.06 91.57 16.56C91.57 14.02 91.29 12.21 90.73 11.13C90.17 10.03 89.22 9.48 87.88 9.48C86.64 9.48 85.73 10.03 85.15 11.13C84.59 12.23 84.31 14.04 84.31 16.56C84.31 19.08 84.61 20.87 85.21 21.93C85.81 22.99 86.77 23.52 88.09 23.52ZM87.97 27.36C85.23 27.36 83.13 26.49 81.67 24.75C80.23 23.01 79.51 20.26 79.51 16.5C79.51 12.74 80.24 9.99 81.7 8.25C83.18 6.51 85.24 5.64 87.88 5.64C90.78 5.64 92.91 6.52 94.27 8.28C95.63 10.02 96.31 12.76 96.31 16.5C96.31 18.42 96.12 20.07 95.74 21.45C95.38 22.81 94.84 23.93 94.12 24.81C93.42 25.69 92.55 26.34 91.51 26.76C90.49 27.16 89.31 27.36 87.97 27.36Z" fill="#6CACE4"/>
<path d="M100.253 12H98.7525V6.64L97.5725 7.41L96.9425 6.34L99.0125 5H100.253V12ZM102.67 10.52C102.917 10.6133 103.15 10.6833 103.37 10.73C103.59 10.77 103.847 10.79 104.14 10.79C104.64 10.79 105.027 10.7033 105.3 10.53C105.573 10.3567 105.71 10.08 105.71 9.7C105.71 9 105.233 8.65 104.28 8.65C104.013 8.65 103.743 8.67333 103.47 8.72C103.203 8.76 102.963 8.81333 102.75 8.88L102.95 5H107.03V6.29H104.13L104.05 7.6C104.217 7.56667 104.363 7.54333 104.49 7.53C104.617 7.51667 104.763 7.51 104.93 7.51C105.337 7.51 105.687 7.57 105.98 7.69C106.28 7.80333 106.527 7.96 106.72 8.16C106.92 8.35333 107.067 8.58333 107.16 8.85C107.253 9.11 107.3 9.38667 107.3 9.68C107.3 10.02 107.247 10.34 107.14 10.64C107.033 10.9333 106.863 11.19 106.63 11.41C106.397 11.63 106.093 11.8033 105.72 11.93C105.347 12.0567 104.897 12.12 104.37 12.12C104.117 12.12 103.843 12.0967 103.55 12.05C103.263 12.01 102.97 11.94 102.67 11.84V10.52Z" fill="#6CACE4"/>
</svg>
