<svg width="34" height="32" viewBox="0 0 34 32" fill="none" xmlns="http://www.w3.org/2000/svg">
<path d="M21.4943 11H19.8429V8.55929H17.305V11H15.6536V4.80714H17.305V7.15071H19.8429V4.80714H21.4943V11Z" fill="#6CACE4"/>
<path d="M5.85815 28.9107C5.68815 28.9916 5.44125 29.0847 5.11744 29.19C4.79363 29.2952 4.35244 29.3478 3.79387 29.3478C3.19482 29.3478 2.68482 29.2709 2.26387 29.1171C1.84292 28.9633 1.49887 28.7447 1.23172 28.4614C0.964582 28.17 0.766248 27.8259 0.636725 27.4293C0.515296 27.0245 0.454582 26.5712 0.454582 26.0693C0.454582 25.5835 0.523391 25.1464 0.66101 24.7578C0.798629 24.3693 1.00101 24.0374 1.26815 23.7621C1.54339 23.4788 1.88744 23.2643 2.3003 23.1185C2.71315 22.9647 3.19482 22.8878 3.7453 22.8878C4.27958 22.8878 4.70458 22.9364 5.0203 23.0335C5.33601 23.1226 5.57887 23.1995 5.74887 23.2643L5.45744 24.5514C5.29553 24.4947 5.10125 24.4381 4.87458 24.3814C4.65601 24.3247 4.37268 24.2964 4.02458 24.2964C3.44172 24.2964 2.98839 24.43 2.66458 24.6971C2.34077 24.9643 2.17887 25.4014 2.17887 26.0085C2.17887 27.2876 2.86696 27.9271 4.24315 27.9271C4.47792 27.9271 4.71268 27.9028 4.94744 27.8543C5.1822 27.8057 5.39268 27.7369 5.57887 27.6478L5.85815 28.9107ZM13.7115 23.0214L14.4643 29.2143H12.8979L12.5822 26.0814L12.5336 25.195H12.4972L12.2786 26.0814L11.21 29.2143H10.0079L8.93931 26.0814L8.72074 25.195H8.68431L8.63574 26.0814L8.32002 29.2143H6.74145L7.49431 23.0214H9.20645L10.6029 27.2957H10.6515L12.0115 23.0214H13.7115Z" fill="#6CACE4"/>
<path d="M24.9594 25.535L24.1337 24.1264H23.9516L23.1259 25.535L22.0209 24.7943L23.1866 23.5557L23.138 23.3978L21.5109 23.0821L21.9116 21.7828L23.4537 22.4628L23.5994 22.3657L23.393 20.7143H24.7287L24.5344 22.3778L24.668 22.4628L26.1859 21.7828L26.5744 23.0821L24.9594 23.3978L24.9109 23.5678L26.0644 24.7943L24.9594 25.535ZM32.948 28.9107C32.778 28.9916 32.5311 29.0847 32.2073 29.19C31.8835 29.2952 31.4423 29.3478 30.8837 29.3478C30.2847 29.3478 29.7747 29.2709 29.3537 29.1171C28.9328 28.9633 28.5887 28.7447 28.3216 28.4614C28.0545 28.17 27.8561 27.8259 27.7266 27.4293C27.6052 27.0245 27.5445 26.5712 27.5445 26.0693C27.5445 25.5835 27.6133 25.1464 27.7509 24.7578C27.8885 24.3693 28.0909 24.0374 28.358 23.7621C28.6333 23.4788 28.9773 23.2643 29.3902 23.1185C29.803 22.9647 30.2847 22.8878 30.8352 22.8878C31.3695 22.8878 31.7945 22.9364 32.1102 23.0335C32.4259 23.1226 32.6687 23.1995 32.8387 23.2643L32.5473 24.5514C32.3854 24.4947 32.1911 24.4381 31.9645 24.3814C31.7459 24.3247 31.4625 24.2964 31.1145 24.2964C30.5316 24.2964 30.0783 24.43 29.7545 24.6971C29.4306 24.9643 29.2687 25.4014 29.2687 26.0085C29.2687 27.2876 29.9568 27.9271 31.333 27.9271C31.5678 27.9271 31.8025 27.9028 32.0373 27.8543C32.2721 27.8057 32.4825 27.7369 32.6687 27.6478L32.948 28.9107Z" fill="#6CACE4"/>
<path d="M20.9328 22.5714H16.6232V21.3704L17.6035 20.6021C17.9155 20.3725 18.1864 20.1634 18.416 19.975C18.6456 19.7808 18.834 19.5983 18.9812 19.4275C19.1342 19.2568 19.2461 19.089 19.3167 18.9241C19.3933 18.7593 19.4315 18.5886 19.4315 18.4119C19.4315 18.1176 19.3373 17.8909 19.1489 17.7319C18.9664 17.5671 18.6809 17.4847 18.2923 17.4847C18.0097 17.4847 17.7448 17.52 17.4975 17.5906C17.2502 17.6613 17.0236 17.7496 16.8175 17.8556V16.6104C17.159 16.4808 17.4769 16.3955 17.7713 16.3543C18.0715 16.3072 18.363 16.2836 18.6456 16.2836C19.0341 16.2836 19.3668 16.3307 19.6435 16.4249C19.9261 16.5191 20.1586 16.6486 20.3412 16.8135C20.5237 16.9725 20.6591 17.1608 20.7474 17.3787C20.8357 17.5965 20.8799 17.8291 20.8799 18.0763C20.8799 18.3766 20.8269 18.6592 20.7209 18.9241C20.6149 19.1891 20.4618 19.4481 20.2617 19.7013C20.0674 19.9486 19.8289 20.1958 19.5464 20.4431C19.2638 20.6845 18.9458 20.9288 18.5926 21.1761L18.2658 21.388V21.3969H20.9328V22.5714Z" fill="#6CACE4"/>
<line x1="2.42859" y1="15.1786" x2="32.7857" y2="15.1786" stroke="#6CACE4" stroke-width="1.21429"/>
</svg>
