<svg width="30" height="18" viewBox="0 0 30 18" fill="none" xmlns="http://www.w3.org/2000/svg">
<path d="M11.7876 11.6482L17.1814 16.9702" stroke="white" stroke-width="1.5" stroke-linecap="round" stroke-linejoin="round"/>
<ellipse cx="7.29282" cy="7.21397" rx="6.29282" ry="6.20787" stroke="white" stroke-width="1.5" stroke-linecap="round" stroke-linejoin="round"/>
<path d="M28.4934 3.02215C28.9209 3.02215 29.2675 2.67557 29.2675 2.24805C29.2675 1.82052 28.9209 1.47395 28.4934 1.47395V3.02215ZM14.5596 3.02215H28.4934V1.47395H14.5596V3.02215Z" fill="white"/>
<path d="M28.4934 8.62957C28.9209 8.62957 29.2675 8.28299 29.2675 7.85547C29.2675 7.42795 28.9209 7.08137 28.4934 7.08137L28.4934 8.62957ZM17.656 8.62957L28.4934 8.62957L28.4934 7.08137L17.656 7.08137L17.656 8.62957Z" fill="white"/>
<path d="M28.4923 14.237C28.9198 14.237 29.2664 13.8904 29.2664 13.4629C29.2664 13.0354 28.9198 12.6888 28.4923 12.6888L28.4923 14.237ZM20.7513 14.237L28.4923 14.237L28.4923 12.6888L20.7513 12.6888L20.7513 14.237Z" fill="white"/>
</svg>
