<svg width="15" height="15" viewBox="0 0 15 15" fill="none" xmlns="http://www.w3.org/2000/svg">
<path d="M14.92 11.825C14.2235 10.3709 13.0356 9.42216 11.3386 8.99891C11.0836 8.93536 10.8127 8.99847 10.6093 9.16478L9.19984 10.3164C8.92459 10.5413 8.53567 10.5702 8.23324 10.3837C6.74225 9.46404 5.53599 8.25768 4.61622 6.76675C4.42964 6.46429 4.45861 6.0753 4.68352 5.80017L5.83517 4.39071C6.00137 4.18729 6.06459 3.91646 6.00104 3.66149C5.57765 1.96444 4.6289 0.776493 3.17493 0.0800569C2.94033 -0.0322864 2.66365 -0.0260071 2.43422 0.0964678C1.70297 0.487036 1.00348 0.928808 0.340756 1.42565C0.0869899 1.61586 -0.0411057 1.93052 0.0117623 2.24321C0.487912 5.06476 2.0126 8.03209 4.49017 10.5097C6.96781 12.9872 9.93515 14.5118 12.7568 14.9883C13.0694 15.041 13.3841 14.913 13.5743 14.6593C14.0712 13.9966 14.5131 13.297 14.9035 12.5659C15.026 12.3364 15.0323 12.0597 14.9199 11.8251L14.92 11.825Z" fill="#025EA1"/>
</svg>
